<svg width="15" height="14" viewBox="0 0 15 14" fill="none" xmlns="http://www.w3.org/2000/svg">
<g clip-path="url(#clip0_70_40)">
<path d="M11.9214 12.8389V12.839C11.9215 12.9337 11.834 13.0394 11.6889 13.0394H1.23255C1.0877 13.0394 1 12.9337 1 12.8389V3.07959C1 2.9849 1.08764 2.87921 1.23255 2.87921H6.46065C6.6056 2.87921 6.6932 2.98494 6.6932 3.07959C6.6932 3.17419 6.6055 3.27997 6.46065 3.27997H2.71525C2.02489 3.27997 1.46525 3.83962 1.46525 4.52997V11.3885C1.46525 12.0788 2.02489 12.6385 2.71525 12.6385H10.2063C10.8967 12.6385 11.4564 12.0788 11.4564 11.3885V7.95915C11.4564 7.86446 11.544 7.75877 11.6889 7.75877C11.8339 7.75877 11.9214 7.8645 11.9214 7.95915V12.8389Z" fill="black" stroke="black" stroke-width="0.5"/>
<path d="M14.1089 2.24479L12.6048 0.842407C12.4166 0.666707 12.111 0.666707 11.9228 0.842407L10.5635 2.11263L5.3094 7.01627C5.2659 7.05687 5.23065 7.10489 5.2065 7.15739L4.0821 9.60921C4.0032 9.77889 4.04505 9.97559 4.1835 10.1047C4.2768 10.1917 4.39905 10.2368 4.5246 10.2368C4.58895 10.2368 4.6533 10.2248 4.716 10.2008L7.34295 9.15141C7.3992 9.12887 7.4508 9.09583 7.49415 9.05537L12.7481 4.15173L14.109 2.88305C14.2971 2.70567 14.2971 2.42049 14.1089 2.24479ZM5.4429 8.93063L5.8821 7.97569L6.46605 8.52071L5.4429 8.93063ZM7.03875 8.20697L6.2184 7.44131L10.9511 3.02403L11.7716 3.78969L7.03875 8.20697ZM12.2267 3.36479L11.4063 2.59913L12.2637 1.79889L13.0841 2.56315L12.2267 3.36479Z" fill="black"/>
</g>
<defs>
<clipPath id="clip0_70_40">
<rect width="15" height="14" fill="white"/>
</clipPath>
</defs>
</svg>
